<svg width="61" height="62" viewBox="0 0 61 62" fill="none" xmlns="http://www.w3.org/2000/svg">
<ellipse cx="30.5" cy="30.0243" rx="30.5" ry="30.0243" fill="#48B7F5" fill-opacity="0.22"/>
<g clip-path="url(#clip0)">
<path d="M36.1999 12.9292C29.6999 12.9292 24.3999 18.2292 24.3999 24.7292C24.3999 31.2292 29.6999 36.5292 36.1999 36.5292C42.6999 36.5292 47.9999 31.2292 47.9999 24.7292C47.9999 18.2292 42.6999 12.9292 36.1999 12.9292ZM36.1999 14.9292C41.2999 14.9292 45.3999 18.8292 45.8999 23.7292H26.4999C26.9999 18.8292 31.1999 14.9292 36.1999 14.9292ZM36.1999 34.5292C31.0999 34.5292 26.9999 30.6292 26.4999 25.7292H45.9999C45.3999 30.6292 41.2999 34.5292 36.1999 34.5292Z" fill="#3A3A3A"/>
<path d="M35.5 46.8292L24.8 36.1292L14.1 25.4292C12.5 23.8292 10.5 23.0292 8.2 23.0292C6 23.0292 3.9 23.9292 2.3 25.4292C0.9 27.0292 0 29.0292 0 31.3292C0 33.5292 0.9 35.6292 2.4 37.2292L13.1 47.9292L23.8 58.6292C25.4 60.2292 27.4 61.0292 29.7 61.0292C32 61.0292 34 60.1292 35.6 58.6292C38.7 55.2292 38.7 50.0292 35.5 46.8292ZM3.8 35.7292C2.7 34.5292 2 32.9292 2 31.3292C2 29.6292 2.7 28.0292 3.8 26.9292C5 25.7292 6.6 25.1292 8.2 25.1292C9.9 25.1292 11.5 25.8292 12.6 26.9292L22.6 36.9292L13.7 45.8292L3.8 35.7292ZM34.1 57.1292C32.9 58.3292 31.3 58.9292 29.7 58.9292C28 58.9292 26.4 58.2292 25.3 57.1292L15.3 47.1292L24.2 38.2292L34.2 48.2292C36.5 50.6292 36.5 54.6292 34.1 57.1292Z" fill="#3A3A3A"/>
<path d="M13.8001 42.2292C14.1001 42.2292 14.3001 42.1292 14.5001 41.9292C14.9001 41.5292 14.9001 40.9292 14.5001 40.5292L7.3001 33.3292C6.8001 32.8292 6.6001 32.2292 6.6001 31.5292C6.6001 30.8292 6.9001 30.2292 7.3001 29.7292C7.7001 29.3292 7.7001 28.7292 7.3001 28.3292C6.9001 27.9292 6.3001 27.9292 5.9001 28.3292C5.0001 29.2292 4.6001 30.3292 4.6001 31.5292C4.6001 32.7292 5.1001 33.9292 5.9001 34.7292L13.1001 41.9292C13.3001 42.1292 13.6001 42.2292 13.8001 42.2292Z" fill="#3A3A3A"/>
</g>
<defs>
<clipPath id="clip0">
<rect width="48" height="48.1" fill="white" transform="translate(0 12.9292)"/>
</clipPath>
</defs>
</svg>
