<svg width="63" height="61" viewBox="0 0 63 61" fill="none" xmlns="http://www.w3.org/2000/svg">
<ellipse cx="32.5" cy="30.0243" rx="30.5" ry="30.0243" fill="#F0E9FA"/>
<g clip-path="url(#clip0)">
<path d="M49 50.6017H42V43.6017C42 38.6017 32.8 34.6017 21 34.6017C9.2 34.6017 0 38.6017 0 43.6017V51.6017C0 56.6017 9.2 60.6017 21 60.6017H49C49.6 60.6017 50 60.2017 50 59.6017V51.6017C50 51.0017 49.6 50.6017 49 50.6017ZM34.3 50.6017C36.7 49.8017 38.6 48.7017 40 47.5017V50.6017H34.3ZM21 36.6017C32.2 36.6017 40 40.3017 40 43.6017C40 46.9017 32.2 50.6017 21 50.6017C9.8 50.6017 2 46.9017 2 43.6017C2 40.3017 9.8 36.6017 21 36.6017ZM48 58.6017H46V55.6017C46 55.0017 45.6 54.6017 45 54.6017C44.4 54.6017 44 55.0017 44 55.6017V58.6017H42V55.6017C42 55.0017 41.6 54.6017 41 54.6017C40.4 54.6017 40 55.0017 40 55.6017V58.6017H38V55.6017C38 55.0017 37.6 54.6017 37 54.6017C36.4 54.6017 36 55.0017 36 55.6017V58.6017H34V55.6017C34 55.0017 33.6 54.6017 33 54.6017C32.4 54.6017 32 55.0017 32 55.6017V58.6017H30V55.6017C30 55.0017 29.6 54.6017 29 54.6017C28.4 54.6017 28 55.0017 28 55.6017V58.6017H26V55.6017C26 55.0017 25.6 54.6017 25 54.6017C24.4 54.6017 24 55.0017 24 55.6017V58.6017H22V55.6017C22 55.0017 21.6 54.6017 21 54.6017C20.4 54.6017 20 55.0017 20 55.6017V58.6017C19.3 58.6017 18.7 58.6017 18 58.5017V55.6017C18 55.0017 17.6 54.6017 17 54.6017C16.4 54.6017 16 55.0017 16 55.6017V58.3017C15.3 58.2017 14.6 58.1017 14 58.0017V54.6017C14 54.0017 13.6 53.6017 13 53.6017C12.4 53.6017 12 54.0017 12 54.6017V57.7017C11.3 57.6017 10.6 57.4017 10 57.2017V53.6017C10 53.0017 9.6 52.6017 9 52.6017C8.4 52.6017 8 53.0017 8 53.6017V56.6017C7.3 56.3017 6.6 56.1017 6 55.8017C6 55.7017 6 55.7017 6 55.7017V52.7017C6 52.1017 5.6 51.7017 5 51.7017C4.4 51.7017 4 52.1017 4 52.7017V54.7017C2.7 53.7017 2 52.7017 2 51.7017V47.6017C5.3 50.7017 12.5 52.7017 21 52.7017H48V58.6017Z" fill="#3A3A3A"/>
<path d="M30 18.8017H18C15.2 18.8017 13 21.0017 13 23.8017C13 26.6017 15.2 28.8017 18 28.8017H30C32.8 28.8017 35 26.6017 35 23.8017C35 21.0017 32.8 18.8017 30 18.8017ZM30 26.8017H25H23H18C16.3 26.8017 15 25.5017 15 23.8017C15 22.1017 16.3 20.8017 18 20.8017H30C31.7 20.8017 33 22.1017 33 23.8017C33 25.5017 31.7 26.8017 30 26.8017Z" fill="#3A3A3A"/>
<path d="M24.1001 27.3017V23.2017" stroke="#3A3A3A" stroke-width="2" stroke-miterlimit="10" stroke-linecap="round" stroke-linejoin="round"/>
<path d="M51.7 22.2017L47.5 18.0017L43.3 13.8017C42.4 12.9017 41.1 12.3017 39.8 12.3017C38.5 12.3017 37.2 12.8017 36.3 13.8017C34.4 15.7017 34.4 18.9017 36.3 20.9017L44.8 29.4017C45.7 30.3017 47 30.9017 48.3 30.9017C49.6 30.9017 50.9 30.4017 51.8 29.4017C52.7 28.4017 53.3 27.2017 53.3 25.9017C53.2 24.4017 52.7 23.2017 51.7 22.2017ZM50.3 27.9017C49.2 29.0017 47.2 29.0017 46.1 27.9017L42.6 24.4017L41.1 22.9017L37.6 19.4017C36.4 18.2017 36.4 16.3017 37.6 15.2017C38.2 14.6017 38.9 14.3017 39.7 14.3017C40.5 14.3017 41.3 14.6017 41.8 15.2017L45.2 18.6017L47.3 20.7017L50.4 23.8017C51 24.4017 51.3 25.1017 51.3 25.9017C51.2 26.6017 50.9 27.3017 50.3 27.9017Z" fill="#3A3A3A"/>
<path d="M44.7002 21.7017L47.2002 19.2017" stroke="#3A3A3A" stroke-width="2" stroke-miterlimit="10" stroke-linecap="round" stroke-linejoin="round"/>
<path d="M12.0999 46.5017C9.1999 45.8017 7.3999 44.8017 7.3999 43.6017C7.3999 41.5017 13.4999 39.8017 20.9999 39.8017C28.4999 39.8017 34.5999 41.5017 34.5999 43.6017C34.5999 45.7017 28.4999 47.4017 20.9999 47.4017" stroke="#3A3A3A" stroke-width="2" stroke-miterlimit="10" stroke-linecap="round" stroke-linejoin="round"/>
</g>
<defs>
<clipPath id="clip0">
<rect width="53.3" height="48.3" fill="white" transform="translate(0 12.3017)"/>
</clipPath>
</defs>
</svg>
