<svg width="61" height="61" viewBox="0 0 61 61" fill="none" xmlns="http://www.w3.org/2000/svg">
<ellipse cx="30.5" cy="30.0244" rx="30.5" ry="30.0244" fill="#E6F2CF"/>
<g clip-path="url(#clip0)">
<path d="M15.0998 36.1118L12.2998 40.3118V40.4118C11.9998 40.9118 11.7998 41.5118 11.7998 42.1118C11.7998 43.9118 13.2998 45.4118 15.0998 45.4118C15.6998 45.4118 16.3998 45.2118 16.8998 44.9118C18.3998 43.9118 18.8998 41.9118 17.8998 40.4118L15.0998 36.1118ZM15.1998 43.0118C14.5998 43.1118 14.0998 42.6118 14.0998 42.1118C14.0998 41.9118 14.0998 41.8118 14.1998 41.6118L15.0998 40.3118L15.9998 41.6118C16.0998 41.7118 16.0998 41.9118 16.0998 42.1118C16.0998 42.5118 15.6998 42.9118 15.1998 43.0118Z" fill="#3A3A3A"/>
<path d="M38.0999 39.1118C37.5999 38.7118 36.8999 38.8118 36.4999 39.3118C36.4999 39.3118 36.4999 39.4118 36.3999 39.4118C35.4999 40.8118 34.9999 42.4118 34.6999 44.0118C34.5999 44.6118 34.9999 45.2118 35.5999 45.2118H35.6999H35.7999C36.3999 45.2118 36.7999 44.8118 36.8999 44.2118C37.0999 42.9118 37.5999 41.6118 38.1999 40.5118C38.7999 40.1118 38.5999 39.5118 38.0999 39.1118Z" fill="#3A3A3A"/>
<path d="M26.3 30.5118C26.3 29.6118 26.1 28.8118 25.7 28.0118L25.4 27.4118C24.8 26.2118 24.8 24.8118 25.5 23.7118C26.1 22.7118 26.3 21.6118 26.2 20.4118C25.9 16.3118 23.7 12.6118 20.3 10.2118V8.21177C20.3 6.61177 19 5.31177 17.4 5.31177H12.9C11.3 5.31177 10 6.61177 10 8.21177V10.4118C6.6 12.7118 4.5 16.5118 4.1 20.6118C4 21.7118 4.2 22.9118 4.8 23.9118C5.5 25.0118 5.5 26.4118 4.9 27.6118L4.6 28.2118C4.2 28.8118 4 29.7118 4 30.5118V51.1118C4 51.7118 4.1 52.3118 4.5 52.7118C5.7 54.3118 9.2 55.1118 15.2 55.1118C21.2 55.1118 24.7 54.3118 25.9 52.7118C26.2 52.3118 26.4 51.7118 26.4 51.2118V30.5118H26.3ZM12.9 7.61177H17.5C17.8 7.61177 18.1 7.91177 18.1 8.21177V9.81177H12.3V8.21177C12.3 7.91177 12.5 7.61177 12.9 7.61177ZM11.4 12.1118H18.8C21.7 14.1118 23.5 17.3118 23.8 20.7118C23.8 21.1118 23.8 21.5118 23.7 21.9118H15.7C15.1 21.9118 14.5 22.4118 14.5 23.1118C14.5 23.7118 15 24.3118 15.7 24.3118H22.8C22.5 25.3118 22.6 26.4118 22.9 27.5118H20.8H20.6H7.4C7.7 26.5118 7.7 25.4118 7.5 24.3118H9.2C9.8 24.3118 10.4 23.8118 10.4 23.1118C10.4 22.5118 9.9 21.9118 9.2 21.9118H6.5C6.4 21.5118 6.3 21.1118 6.4 20.7118C6.7 17.3118 8.5 14.1118 11.4 12.1118ZM24 51.3118C23.8 51.5118 22.5 52.8118 15.2 52.8118C7.9 52.8118 6.6 51.6118 6.4 51.3118V30.5118C6.4 30.2118 6.4 30.0118 6.5 29.7118H20.7H20.9H23.9C24 29.9118 24 30.2118 24 30.5118V51.3118Z" fill="#3A3A3A"/>
<path d="M54.3999 38.3118C54.2999 38.2118 54.2999 38.1118 54.1999 38.0118C53.9999 37.6118 53.8999 37.4118 53.7999 37.4118C53.2999 36.7118 52.6999 36.0118 51.9999 35.4118C50.5999 34.3118 48.7999 33.9118 47.0999 34.2118C46.3999 34.3118 45.5999 34.6118 44.9999 34.9118C44.8999 35.0118 44.6999 35.0118 44.5999 35.1118C44.6999 33.9118 44.2999 32.7118 43.5999 31.7118C42.9999 30.9118 42.0999 30.4118 41.1999 30.2118C40.5999 30.1118 39.8999 30.5118 39.7999 31.1118C39.7999 31.2118 39.7999 31.3118 39.7999 31.4118C39.7999 32.0118 40.1999 32.4118 40.7999 32.6118C41.1999 32.7118 41.5999 32.9118 41.8999 33.2118C42.2999 33.8118 42.4999 34.5118 42.3999 35.3118C42.1999 35.2118 41.9999 35.1118 41.6999 35.0118C40.9999 34.7118 40.2999 34.4118 39.5999 34.3118C37.8999 34.0118 36.0999 34.4118 34.6999 35.5118C32.2999 37.6118 30.7999 40.9118 30.6999 44.7118C30.5999 49.6118 33.3999 54.9118 38.4999 55.2118C38.6999 55.2118 38.8999 55.2118 39.0999 55.2118C39.9999 55.2118 40.8999 55.1118 41.7999 55.0118C42.3999 54.9118 42.8999 54.9118 43.4999 54.8118C44.0999 54.8118 44.5999 54.9118 45.1999 55.0118C46.2999 55.2118 47.3999 55.2118 48.4999 55.2118C52.4999 55.0118 55.0999 51.7118 55.9999 47.9118C56.7999 43.6118 55.2999 40.0118 54.3999 38.3118ZM48.0999 52.7118C47.0999 52.7118 46.1999 52.7118 45.2999 52.5118C44.8999 52.4118 44.4999 52.4118 44.0999 52.4118C43.1999 52.3118 42.2999 52.4118 41.3999 52.5118C40.4999 52.7118 39.4999 52.7118 38.5999 52.7118C34.6999 52.5118 32.8999 47.7118 32.9999 44.6118C33.0999 41.5118 34.1999 38.7118 36.0999 37.1118C36.6999 36.6118 37.4999 36.3118 38.3999 36.4118C38.6999 36.4118 38.8999 36.4118 39.1999 36.5118C39.6999 36.6118 40.2999 36.8118 40.6999 37.0118C41.4999 37.4118 42.3999 37.7118 43.2999 37.7118H43.3999C44.2999 37.6118 45.1999 37.4118 45.9999 37.0118C46.4999 36.8118 46.9999 36.6118 47.4999 36.5118C48.5999 36.3118 49.6999 36.5118 50.4999 37.2118C51.1999 37.8118 51.7999 38.6118 52.2999 39.4118C52.2999 39.4118 52.2999 39.4118 52.3999 39.5118C52.8999 40.5118 53.8999 42.8118 53.6999 45.6118C53.6999 45.6118 53.6999 45.6118 53.6999 45.7118C53.3999 48.7118 51.5999 52.5118 48.0999 52.7118Z" fill="#3A3A3A"/>
</g>
<defs>
<clipPath id="clip0">
<rect width="52.1" height="49.8" fill="white" transform="translate(4 5.31177)"/>
</clipPath>
</defs>
</svg>
