<svg width="61" height="61" viewBox="0 0 61 61" fill="none" xmlns="http://www.w3.org/2000/svg">
<path d="M30.5 60.6C47.3447 60.6 61 47.1685 61 30.6C61 14.0315 47.3447 0.600006 30.5 0.600006C13.6553 0.600006 0 14.0315 0 30.6C0 47.1685 13.6553 60.6 30.5 60.6Z" fill="#E6F2CF"/>
<path d="M43.3268 17H31.6268C31.2268 17 30.9268 17.3 30.9268 17.7C30.9268 18.1 31.2268 18.4 31.6268 18.4H32.9268V50.9C32.9268 53.7 34.9268 56 37.5268 56C40.0268 56 42.1268 53.7 42.1268 50.9V18.4H43.4268C43.8268 18.4 44.1268 18.1 44.1268 17.7C44.1268 17.3 43.7268 17 43.3268 17ZM40.6268 50.9C40.6268 52.9 39.2268 54.6 37.5268 54.6C35.8268 54.6 34.4268 52.9 34.4268 50.9V39.9H37.4268C37.8268 39.9 38.1268 39.6 38.1268 39.2C38.1268 38.8 37.8268 38.5 37.4268 38.5H34.4268V34.6H37.4268C37.8268 34.6 38.1268 34.3 38.1268 33.9C38.1268 33.5 37.8268 33.2 37.4268 33.2H34.4268V29.3H37.4268C37.8268 29.3 38.1268 29 38.1268 28.6C38.1268 28.2 37.8268 27.9 37.4268 27.9H34.4268V24H37.4268C37.8268 24 38.1268 23.7 38.1268 23.3C38.1268 22.9 37.8268 22.6 37.4268 22.6H34.4268V18.5H40.6268V50.9Z" fill="#3A3A3A" stroke="#3A3A3A" stroke-width="0.75" stroke-miterlimit="10"/>
<path d="M20.2267 35.7V27.9H23.2267C23.6267 27.9 23.9267 27.6 23.9267 27.2C23.9267 26.8 23.6267 26.5 23.2267 26.5H19.5267H12.1267H8.42673C8.02673 26.5 7.72673 26.8 7.72673 27.2C7.72673 27.6 8.02673 27.9 8.42673 27.9H11.4267V35.7L7.82673 44C7.82673 44 6.72673 46.7 5.62673 49.2C3.62673 53.4 6.82673 56.1 9.42673 56.1H22.1267C24.7267 56.1 27.8267 53.6 26.2267 49.5C25.0267 46.6 20.2267 35.7 20.2267 35.7ZM22.1267 54.6H9.42673C8.52673 54.6 7.82673 54.2 7.22673 53.5C6.32673 52.5 6.22673 51 6.72673 49.8L8.82673 44.9H15.7267C16.1267 44.9 16.4267 44.6 16.4267 44.2C16.4267 43.8 16.1267 43.5 15.7267 43.5H9.42673L12.7267 36.1C12.7267 36 12.7267 35.9 12.8267 35.8V27.9H18.8267V35.8C18.8267 35.9 18.8267 36 18.9267 36.1L22.2267 43.5H21.0267C20.6267 43.5 20.3267 43.8 20.3267 44.2C20.3267 44.6 20.6267 44.9 21.0267 44.9H22.8267L24.9267 49.8C25.4267 51 25.3267 52.5 24.4267 53.5C23.8267 54.2 23.0267 54.6 22.1267 54.6Z" fill="#3A3A3A" stroke="#3A3A3A" stroke-width="0.75" stroke-miterlimit="10"/>
</svg>
