<svg width="61" height="61" viewBox="0 0 61 61" fill="none" xmlns="http://www.w3.org/2000/svg">
<ellipse cx="30.5" cy="30.0243" rx="30.5" ry="30.0243" fill="#FEE25A" fill-opacity="0.35"/>
<g clip-path="url(#clip0)">
<path d="M1.6 20.1C1.3 19.8 1.3 19.3 1.6 19C1.7 18.9 1.9 18.8 2 18.8L18.2 16.4L25.4 1.7C25.6 1.3 26.1 1.2 26.5 1.4C26.6 1.5 26.7 1.6 26.8 1.7L34 16.4L50.2 18.8C50.6 18.9 50.9 19.3 50.9 19.7C50.9 19.9 50.8 20 50.7 20.1L44.6 26.1C44.3 26.4 43.8 26.4 43.5 26.1C43.2 25.8 43.2 25.3 43.5 25L48.5 20.1L33.4 17.9C33.1 17.9 32.9 17.7 32.8 17.5L26.2 3.8L19.5 17.4C19.4 17.6 19.2 17.8 18.9 17.8L3.8 20.1L14.7 30.7C14.9 30.9 15 31.1 14.9 31.4L12.3 46.4L20.7 41.8C21.1 41.6 21.5 41.7 21.7 42.1C21.9 42.5 21.8 42.9 21.4 43.1L11.6 48.4C11.2 48.6 10.8 48.5 10.6 48.1C10.5 48 10.5 47.8 10.5 47.6L13.3 31.5L1.6 20.1ZM42.1 33.4C42.9 34.3 43.3 35.4 43.1 36.6L43 38.7C42.8 41 40.7 42.6 38.5 42.4C36.5 42.2 35 40.7 34.8 38.7L34.6 36.6C34.4 34.3 36 32.3 38.3 32.1C38.4 32.1 38.6 32.1 38.7 32.1H39C40.2 32.1 41.3 32.6 42.1 33.4ZM41 34.5C40.5 33.9 39.8 33.6 39.1 33.6H38.7C37.3 33.6 36.1 34.8 36.1 36.2C36.1 36.3 36.1 36.4 36.1 36.5L36.3 38.6C36.4 40 37.7 41.1 39.2 40.9C40.4 40.8 41.4 39.8 41.5 38.6L41.7 36.5C41.7 35.7 41.5 35 41 34.5ZM51.2 41.3C51.2 48.2 45.6 53.8 38.7 53.8C31.8 53.8 26.2 48.2 26.2 41.3C26.2 34.4 31.8 28.8 38.7 28.8C45.6 28.8 51.1 34.4 51.2 41.3ZM38.7 52.2C41.2 52.2 43.7 51.3 45.6 49.7V46.9C45.6 45.9 44.8 45.1 43.8 45.1H33.5C32.5 45.1 31.7 45.9 31.7 46.9V49.7C33.7 51.4 36.1 52.3 38.7 52.2ZM49.6 41.3C49.6 35.2 44.7 30.3 38.6 30.3C32.5 30.3 27.6 35.2 27.6 41.3C27.6 43.8 28.5 46.3 30.1 48.3V47C30.1 45.2 31.6 43.7 33.4 43.7H43.7C45.5 43.7 47 45.2 47 47V48.3C48.7 46.3 49.6 43.8 49.6 41.3Z" fill="#3A3A3A" stroke="#3A3A3A" stroke-width="0.75" stroke-miterlimit="10"/>
</g>
<defs>
<clipPath id="clip0">
<rect width="50.5" height="53.2" fill="white" transform="translate(1 1)"/>
</clipPath>
</defs>
</svg>
