<svg width="16" height="16" viewBox="0 0 16 16" fill="none" xmlns="http://www.w3.org/2000/svg">
<g clip-path="url(#clip0)">
<path d="M6.49121 14.3625V15.9844L6.125 15.6656C6.06934 15.6156 4.71875 14.4469 3.34766 12.7688C1.45801 10.4563 0.5 8.38125 0.5 6.6V6.42188C0.5 2.89687 3.18652 0.03125 6.49121 0.03125C9.7959 0.03125 12.4824 2.89687 12.4824 6.42188V6.6C12.4824 6.75 12.4736 6.90313 12.4619 7.05625L11.29 5.91563C11.0498 3.31563 8.99023 1.28125 6.49121 1.28125C3.83105 1.28125 1.66895 3.5875 1.66895 6.425V6.60313C1.66895 9.60938 5.30762 13.2563 6.49121 14.3625ZM10.0859 13.4656H11.8408V11.5938H10.0859V13.4656ZM6.49121 3.77187C7.8623 3.77187 8.97559 4.95937 8.97559 6.42188C8.97559 7.88438 7.8623 9.07187 6.49121 9.07187C5.12012 9.07187 4.00684 7.88438 4.00684 6.42188C4.00684 4.95937 5.12012 3.77187 6.49121 3.77187ZM6.49121 5.01875C5.76465 5.01875 5.17578 5.64687 5.17578 6.42188C5.17578 7.19688 5.76465 7.825 6.49121 7.825C7.21777 7.825 7.80664 7.19688 7.80664 6.42188C7.80664 5.64687 7.21777 5.01875 6.49121 5.01875ZM14.7119 12.6187L14.3838 12.3V14.3031C14.3838 15.2344 13.6719 15.9937 12.7988 15.9937H9.09863C8.22559 15.9937 7.51367 15.2344 7.51367 14.3031V12.3L7.18555 12.6187L6.39746 11.6969L10.9502 7.26875L15.5 11.7L14.7119 12.6187ZM13.2148 11.1625L10.9473 8.95625L8.67969 11.1625V14.3031C8.67969 14.5469 8.86719 14.7469 9.0957 14.7469H12.7959C13.0244 14.7469 13.2119 14.5469 13.2119 14.3031V11.1625H13.2148Z" fill="white"/>
</g>
<defs>
<clipPath id="clip0">
<rect width="15" height="16" fill="white" transform="translate(0.5)"/>
</clipPath>
</defs>
</svg>
