<svg width="16" height="16" viewBox="0 0 16 16" fill="none" xmlns="http://www.w3.org/2000/svg">
<path d="M14.5 2H1.5C0.671875 2 0 2.67188 0 3.5V12.5C0 13.3281 0.671875 14 1.5 14H14.5C15.3281 14 16 13.3281 16 12.5V3.5C16 2.67188 15.3281 2 14.5 2ZM14.5 3C14.5688 3 14.6313 3.01562 14.6906 3.0375L8 8.8375L1.30938 3.0375C1.36875 3.0125 1.43438 3 1.5 3H14.5ZM14.5 13H1.5C1.225 13 1 12.775 1 12.5V4.09375L7.67188 9.875C7.76562 9.95625 7.88438 9.99687 8 9.99687C8.11563 9.99687 8.23438 9.95625 8.32812 9.875L15 4.09375V12.5C15 12.775 14.775 13 14.5 13Z" fill="white"/>
</svg>
