<svg width="16" height="16" viewBox="0 0 16 16" fill="none" xmlns="http://www.w3.org/2000/svg">
<g clip-path="url(#clip0)">
<path d="M11.4993 16C10.9836 16 10.4711 15.9094 9.97113 15.7281C7.76488 14.9281 5.71801 13.6219 4.04926 11.9531C2.38051 10.2844 1.07426 8.2375 0.271134 6.03125C0.0148836 5.32188 -0.0632414 4.59062 0.0461336 3.85625C0.146134 3.16875 0.414884 2.5 0.818009 1.925C1.22426 1.34687 1.76176 0.865625 2.38051 0.534375C3.03676 0.178125 3.75551 0 4.51176 0C4.74613 0 4.95238 0.165625 4.99926 0.39375L5.78363 4.05625C5.81801 4.22188 5.76801 4.39375 5.64926 4.51562L4.30863 5.85625C5.57426 8.37187 7.62738 10.425 10.1399 11.6875L11.4805 10.3469C11.5993 10.2281 11.7743 10.175 11.9399 10.2125L15.6024 10.9969C15.8336 11.0469 15.9961 11.25 15.9961 11.4844C15.9961 12.2437 15.818 12.9594 15.4618 13.6187C15.1305 14.2344 14.6493 14.775 14.0711 15.1812C13.4961 15.5844 12.8274 15.85 12.1399 15.9531C11.9274 15.9844 11.7118 16 11.4993 16ZM4.11176 1.02188C3.11176 1.13125 2.22426 1.65625 1.63676 2.49688C0.974259 3.44375 0.818009 4.60625 1.21176 5.6875C2.75238 9.93125 6.06801 13.2469 10.3118 14.7875C11.393 15.1813 12.5586 15.025 13.5024 14.3625C14.343 13.7719 14.868 12.8844 14.9774 11.8875L11.9993 11.2469L10.5993 12.6469C10.4493 12.7969 10.2243 12.8344 10.0336 12.7469C7.05863 11.35 4.65238 8.94062 3.25238 5.96562C3.16176 5.775 3.20238 5.55 3.35238 5.4L4.75238 4L4.11176 1.02188Z" fill="white"/>
<path d="M15.5 8.5C15.225 8.5 15 8.275 15 8C15 4.14062 11.8594 1 8 1C7.725 1 7.5 0.775 7.5 0.5C7.5 0.225 7.725 0 8 0C10.1375 0 12.1469 0.83125 13.6562 2.34375C15.1656 3.85625 16 5.8625 16 8C16 8.275 15.775 8.5 15.5 8.5Z" fill="white"/>
<path d="M13.5 8.5C13.225 8.5 13 8.275 13 8C13 5.24375 10.7562 3 8 3C7.725 3 7.5 2.775 7.5 2.5C7.5 2.225 7.725 2 8 2C11.3094 2 14 4.69062 14 8C14 8.275 13.775 8.5 13.5 8.5Z" fill="white"/>
<path d="M11.5 8.5C11.225 8.5 11 8.275 11 8C11 6.34687 9.65313 5 8 5C7.725 5 7.5 4.775 7.5 4.5C7.5 4.225 7.725 4 8 4C10.2062 4 12 5.79375 12 8C12 8.275 11.775 8.5 11.5 8.5Z" fill="white"/>
</g>
<defs>
<clipPath id="clip0">
<rect width="16" height="16" fill="white"/>
</clipPath>
</defs>
</svg>
